<svg width="20" height="20" viewBox="0 0 20 20" fill="none" xmlns="http://www.w3.org/2000/svg">
<path d="M20 9.99087C20 9.96938 19.9953 9.94969 19.9936 9.92856C19.9563 4.44739 15.4871 0 9.99803 0C4.48499 0 0 4.48463 0 9.99767C0 15.5107 4.48499 19.9953 9.99803 19.9953C15.4935 19.9953 19.9663 15.5383 19.9943 10.0489C19.9957 10.0292 20 10.0106 20 9.99087ZM9.99803 1.49392C14.4325 1.49392 18.0832 4.90645 18.4663 9.24355H13.919C13.5656 7.40014 11.9428 6.00254 9.99767 6.00254C8.05257 6.00254 6.43009 7.40014 6.07631 9.24355H1.52937C1.91216 4.90681 5.56282 1.49392 9.99803 1.49392ZM12.4989 9.99767C12.4989 11.3766 11.3766 12.4982 9.99803 12.4982C8.61905 12.4982 7.49718 11.3763 7.49718 9.99767C7.49718 8.61869 8.61905 7.49682 9.99803 7.49682C11.3766 7.49682 12.4989 8.61869 12.4989 9.99767ZM9.99803 18.5014C5.55852 18.5014 1.90464 15.0814 1.5283 10.7378H6.07488C6.42329 12.5877 8.04863 13.9924 9.99839 13.9924C11.9481 13.9924 13.5735 12.5877 13.9219 10.7378H18.4674C18.0903 15.0814 14.4372 18.5014 9.99803 18.5014Z" fill="#7F8596"/>
<path d="M9.99765 11.2224C10.674 11.2224 11.2223 10.6741 11.2223 9.99771C11.2223 9.32136 10.674 8.77307 9.99765 8.77307C9.3213 8.77307 8.77301 9.32136 8.77301 9.99771C8.77301 10.6741 9.3213 11.2224 9.99765 11.2224Z" fill="#7F8596"/>
</svg>
